<?xml version="1.0" encoding="utf-8"?>
<!-- Generator: Adobe Illustrator 26.0.3, SVG Export Plug-In . SVG Version: 6.00 Build 0)  -->
<svg version="1.1" id="Layer_1" xmlns="http://www.w3.org/2000/svg" xmlns:xlink="http://www.w3.org/1999/xlink" x="0px" y="0px"
	 viewBox="0 0 1920 1080" style="enable-background:new 0 0 1920 1080;" xml:space="preserve">
<style type="text/css">
	.st0{fill:url(#SVGID_1_);}
	.st1{fill:#353535;}
	.st2{fill:url(#SVGID_00000147217048851788820990000006780177305141305227_);}
	.st3{opacity:0.82;fill:url(#SVGID_00000078028500398859323030000017118069663781074600_);}
	.st4{opacity:0.82;fill:url(#SVGID_00000083050538901964926740000000052814846228758913_);}
	.st5{fill:url(#SVGID_00000107553361103171085580000016118396045064748698_);}
	.st6{fill:url(#SVGID_00000055696257178248190940000000233179602162526088_);}
	.st7{fill:url(#SVGID_00000077304279547157183920000012313342172040713099_);}
	.st8{fill:url(#SVGID_00000009588327324693935890000002793239662185377435_);}
</style>
<linearGradient id="SVGID_1_" gradientUnits="userSpaceOnUse" x1="939.3516" y1="604.5071" x2="1290.7041" y2="253.1546">
	<stop  offset="0" style="stop-color:#D6A052"/>
	<stop  offset="0.3046" style="stop-color:#D39D47"/>
	<stop  offset="0.4963" style="stop-color:#C98A3E"/>
	<stop  offset="0.7099" style="stop-color:#F7D571"/>
	<stop  offset="1" style="stop-color:#D5A74C"/>
</linearGradient>
<path class="st0" d="M965.9,363.9h-82v52.3h69.7V442h-69.7v51.2h80.6V520H854.9V337.8h111.1V363.9z M1132.2,398.8
	c0,32.7-25.4,59.2-59.2,60.6l-8-25c24.7-1.8,37.7-14.5,37.7-35.6c0-22.9-15.2-34.8-39.9-34.8h-27.2V520h-29V337.8h55.2
	C1105,337.8,1132.2,360.7,1132.2,398.8z M1196.8,520h-29V337.8h29V520z M1332.2,335.6c16.3,0,35.2,3.3,54.1,13.1l-6.2,27.9
	c-17.8-9.1-34.8-12.3-49.4-12.3c-41.4,0-65.3,26.1-65.3,64.2c0,38.5,24,64.6,65.3,64.6c14.5,0,31.6-3.3,49.4-12.3l6.2,27.9
	c-18.9,9.8-37.8,13.1-54.1,13.1c-53.7,0-95.5-34.8-95.5-93.3C1236.7,370.5,1278.1,335.6,1332.2,335.6z"/>
<g>
	<path class="st1" d="M918,565.8c12.1,0,25.7,2,38.3,8.9l-3.1,13.7c-12-6.4-25.4-8.8-35.2-8.8c-27.6,0-48,20.8-48,49.7
		c0,28.7,20.4,49.5,48,49.5c9.9,0,23.2-2.4,35.2-8.8l3.1,13.7c-12.6,6.9-26.3,8.9-38.3,8.9c-34.3,0-63.2-23.5-63.2-63.3
		C854.9,589.3,883.7,565.8,918,565.8z"/>
	<path class="st1" d="M1082.1,659.4h-54l-13.5,32.1h-16.4l55.7-126h3.3l55.7,126H1096L1082.1,659.4z M1076.5,645.9l-21.7-50.4
		l-21,50.4H1076.5z"/>
	<path class="st1" d="M1195.5,566.1c5.7,0,17.2,0.7,28.3,6.4l-2.7,13.1c-10.4-4.6-19-5.7-25-5.7c-13.9,0-20.8,6.2-20.8,15.7
		c0,24.8,51.3,26.1,51.3,63.3c0,17.9-12,33.2-39.3,33.2c-12.6,0-22.8-3.3-30.9-7.7l2.7-13.7c11,5.3,17.7,7.7,27.9,7.7
		c17.2,0,24.8-6.8,24.8-17.7c0-27.8-52.2-29.2-52.2-64.8C1159.7,578.4,1172.7,566.1,1195.5,566.1z"/>
	<path class="st1" d="M1386.3,566.9v124.7h-14.6v-56.2h-70.1v56.2h-14.6V566.9h14.6v54.6h70.1v-54.6H1386.3z"/>
</g>
<linearGradient id="SVGID_00000155853593896219909620000012871303335348082304_" gradientUnits="userSpaceOnUse" x1="462.907" y1="676.7091" x2="650.4548" y2="351.8667">
	<stop  offset="0" style="stop-color:#D6A052"/>
	<stop  offset="0.3046" style="stop-color:#D39D47"/>
	<stop  offset="0.4963" style="stop-color:#C98A3E"/>
	<stop  offset="0.7099" style="stop-color:#F7D571"/>
	<stop  offset="1" style="stop-color:#D5A74C"/>
</linearGradient>
<path style="fill:url(#SVGID_00000155853593896219909620000012871303335348082304_);" d="M744.2,561.8c0.1,2.5,0.1,3.8,0.1,5.2
	c0,16.9-0.1,33.8,0.1,50.7c0,3.7-1.3,5.6-4.4,7.4c-59.9,34.5-119.7,69-179.4,103.8c-3.8,2.2-6.1,0.7-9-1
	c-52.1-30.1-104.1-60.1-156.2-90.2c-7.5-4.3-14.9-8.7-22.4-12.9c-2.8-1.5-4-3.4-4-6.6c0.1-69.1,0.1-138.3,0-207.4
	c0-3.2,1-5.1,3.9-6.7c59.7-34.4,119.4-68.8,179-103.4c3.6-2.1,6.3-2.1,9.9,0.1c14.5,8.7,29.2,17,43.8,25.5c1.1,0.6,2.2,1.4,3.8,2.4
	c-12.5,7.2-24.5,14.1-36.5,21.1c-48.3,27.9-96.7,55.9-145.1,83.7c-4.2,2.4-5.9,5.1-5.9,10.1c0.2,47.4,0.2,94.9,0,142.3
	c0,4.5,1.2,7.1,5.3,9.5C468.9,619,510.4,643,552,667.2c3.4,2,6,2.1,9.4,0.1C620.3,633.1,679.3,599,738.2,565
	C739.9,564,741.9,563,744.2,561.8z"/>
<path class="st1" d="M708.6,459.7c0,19.2,0.1,37.8-0.2,56.2c0,1.7-2.2,3.8-3.9,4.8c-39.1,22.7-78.2,45.2-117.3,67.8
	c-7.9,4.5-15.8,9-23.6,13.7c-3.2,1.9-6,2.1-9.3,0.2c-12-7-24.1-13.9-36.1-20.9c-5.7-3.4-5.8-8-0.1-11.4
	c62.5-36.4,125-72.7,187.5-109C706.5,460.7,707,460.4,708.6,459.7z"/>
<path class="st1" d="M680.2,410.4c-6.8,4-12.7,7.4-18.7,10.9C605,454.2,548.5,487,491.9,519.9c-1,0.6-2,1.2-3,1.7
	c-4.5,2.2-8.7,0-8.7-5c-0.2-14.6-0.3-29.2,0.2-43.8c0.1-2.3,3.2-5.3,5.6-6.7c39.5-23,79.1-45.8,118.7-68.6
	c7.9-4.6,15.7-9.2,23.7-13.6c1.4-0.8,4-1.1,5.3-0.3C648.9,392.2,664.1,401.1,680.2,410.4z"/>
<path class="st1" d="M716.9,513.6c0-19.8,0-38.3,0.1-56.9c0-1.2,1.3-2.9,2.5-3.7c5.3-3.3,10.8-6.5,16.3-9.6c5.4-3,9.6-0.5,9.6,5.8
	c0.1,14.4,0.1,28.9-0.1,43.3c0,2-1.2,4.9-2.7,5.9C734.6,503.6,726.2,508.2,716.9,513.6z"/>
<path class="st1" d="M640.1,377.1c8.2-4.7,16.7-9.8,25-14.2c1.8-1,5.1-0.9,6.9,0.1c12,6.6,23.9,13.5,35.7,20.5
	c5.2,3,5.2,7.7,0.1,10.8c-5.5,3.4-11.1,6.6-16.7,9.7c-1.1,0.6-3,0.9-4,0.3c-15.4-8.8-30.1-17.3-45.4-26.2
	C641.4,378,640.8,377.6,640.1,377.1z"/>
<linearGradient id="SVGID_00000149382359674871989600000010459346708880478134_" gradientUnits="userSpaceOnUse" x1="1502.3206" y1="334.4254" x2="1502.5312" y2="334.4254">
	<stop  offset="0" style="stop-color:#BA7E3C"/>
	<stop  offset="1" style="stop-color:#C2813C"/>
</linearGradient>
<path style="opacity:0.82;fill:url(#SVGID_00000149382359674871989600000010459346708880478134_);" d="M1502.3,334.5
	c0.1,0,0.1-0.1,0.2-0.1C1502.5,334.4,1502.4,334.4,1502.3,334.5z"/>
<linearGradient id="SVGID_00000053511941502872792900000005533194726817215155_" gradientUnits="userSpaceOnUse" x1="1501.4958" y1="334.8821" x2="1501.6681" y2="334.8821">
	<stop  offset="0" style="stop-color:#BA7E3C"/>
	<stop  offset="1" style="stop-color:#C2813C"/>
</linearGradient>
<path style="opacity:0.82;fill:url(#SVGID_00000053511941502872792900000005533194726817215155_);" d="M1501.7,334.8
	c-0.1,0-0.1,0.1-0.2,0.1v0C1501.6,334.9,1501.6,334.9,1501.7,334.8z"/>
<g>
	
		<linearGradient id="SVGID_00000086677444581732222710000014668981649397216131_" gradientUnits="userSpaceOnUse" x1="1393.33" y1="301.9624" x2="1529.9954" y2="301.9624">
		<stop  offset="0" style="stop-color:#E6E6E6"/>
		<stop  offset="0.309" style="stop-color:#E4E4E4"/>
		<stop  offset="0.6086" style="stop-color:#E0DFE0"/>
		<stop  offset="1" style="stop-color:#ECEAEC"/>
	</linearGradient>
	<path style="fill:url(#SVGID_00000086677444581732222710000014668981649397216131_);" d="M1428.9,266.2
		c15.1-0.4,25.5,8.3,33.4,21.1c0,0,0,0,0,0c1.1,1.8,10,16.1,12.9,20.2c1.5,2.2,3.1,4.2,4.4,5.8c0.8,1,1.6,2,2.6,3
		c0.2,0.2,0.3,0.3,0.5,0.5c0,0,0,0,0,0c0.6,0.5,1.1,1.1,1.8,1.6c0.1,0.1,0.2,0.2,0.3,0.3c5.3,5.4,12.3,9.2,20.4,9.2
		c11.1,0,20.7-6.7,24.9-16.3c-4.2,15-18,25.8-34.3,26.3c-15.7,0.4-26.1-8.2-33.4-21.1c0,0,0,0,0,0c-1.1-1.8-9.8-15.6-12.6-19.6
		c-1.5-2.2-3.1-4.2-4.4-5.8c-0.8-1-1.6-2-2.6-3c-0.2-0.2-0.3-0.3-0.5-0.5c0,0,0,0,0,0c-1.1-1-2.2-2-3.4-2.8
		c-4.9-4.6-11.4-7.4-18.6-7.4c-13.4,0-24.6,9.8-26.9,22.6C1394.3,281.3,1409.8,266.7,1428.9,266.2z"/>
	
		<linearGradient id="SVGID_00000147179711169324520880000009527032503225540996_" gradientUnits="userSpaceOnUse" x1="1485.0673" y1="302.6579" x2="1531.3282" y2="302.6579">
		<stop  offset="0" style="stop-color:#BA7E3C"/>
		<stop  offset="1" style="stop-color:#C2813C"/>
	</linearGradient>
	<path style="fill:url(#SVGID_00000147179711169324520880000009527032503225540996_);" d="M1531.3,301.9c0-0.7,0-1.4-0.1-2.1
		c-2.4-12.7-13.5-22.3-26.8-22.3c-6.8,0-13,2.5-17.8,6.6c2.4-1,5-1.5,7.7-1.5c0.1,0,0.3,0,0.4,0c0.1,0,0.3,0,0.4,0
		c10.9,0,19.8,8.6,19.8,19.3s-8.9,19.3-19.8,19.3c-0.1,0-0.3,0-0.4,0c-0.1,0-0.3,0-0.4,0c-3.4,0-6.6-0.8-9.4-2.3
		c5.3,5.2,12.1,8.9,20,8.9c11.1,0,20.7-6.7,24.9-16.3c-0.2,0.7-0.4,1.4-0.6,2.1C1530.6,310,1531.3,306.1,1531.3,301.9z"/>
	
		<linearGradient id="SVGID_00000050625181286056062470000006471621996280448412_" gradientUnits="userSpaceOnUse" x1="1394.6609" y1="301.9321" x2="1531.3263" y2="301.9321">
		<stop  offset="0" style="stop-color:#D6A052"/>
		<stop  offset="0.3046" style="stop-color:#D39D47"/>
		<stop  offset="0.4963" style="stop-color:#C98A3E"/>
		<stop  offset="0.7099" style="stop-color:#F7D571"/>
		<stop  offset="1" style="stop-color:#D5A74C"/>
	</linearGradient>
	<path style="fill:url(#SVGID_00000050625181286056062470000006471621996280448412_);" d="M1495.7,266.2
		c-15.1-0.4-25.5,8.3-33.4,21.1c0,0,0,0,0,0c-1.1,1.8-10,16.1-12.9,20.2c-1.5,2.2-3.1,4.2-4.4,5.8c-0.8,1-1.6,2-2.6,3
		c-0.2,0.2-0.3,0.3-0.5,0.5c0,0,0,0,0,0c-0.6,0.5-1.1,1.1-1.8,1.6c-0.1,0.1-0.2,0.2-0.3,0.3c-5.3,5.4-12.3,9.2-20.4,9.2
		c-11.1,0-20.7-6.7-24.9-16.3c4.2,15,18,25.8,34.3,26.3c15.7,0.4,26.1-8.2,33.4-21.1c0,0,0,0,0,0c1.1-1.8,9.8-15.6,12.6-19.6
		c1.5-2.2,3.1-4.2,4.4-5.8c0.8-1,1.6-2,2.6-3c0.2-0.2,0.3-0.3,0.5-0.5c0,0,0,0,0,0c1.1-1,2.2-2,3.4-2.8c4.9-4.6,11.4-7.4,18.6-7.4
		c13.4,0,24.6,9.8,26.9,22.6C1530.4,281.2,1514.8,266.6,1495.7,266.2z"/>
	
		<linearGradient id="SVGID_00000013873179245754742530000008716125511428890543_" gradientUnits="userSpaceOnUse" x1="1393.33" y1="302.6579" x2="1439.5114" y2="302.6579">
		<stop  offset="0" style="stop-color:#CACACA"/>
		<stop  offset="1" style="stop-color:#CDCDCD"/>
	</linearGradient>
	<path style="fill:url(#SVGID_00000013873179245754742530000008716125511428890543_);" d="M1395.5,314c-0.3-0.8-0.6-1.7-0.8-2.5
		c4.3,9.6,13.8,16.3,24.9,16.3c7.9,0,14.7-3.6,19.9-8.8c-2.8,1.4-5.9,2.2-9.3,2.2c-0.1,0-0.3,0-0.4,0c-0.1,0-0.3,0-0.4,0
		c-10.9,0-19.8-8.6-19.8-19.3s8.9-19.3,19.8-19.3c0.1,0,0.3,0,0.4,0c0.1,0,0.3,0,0.4,0c2.7,0,5.3,0.5,7.6,1.5
		c-4.8-4.1-10.9-6.6-17.7-6.6c-13.3,0-24.3,9.6-26.8,22.3c0,0.7-0.1,1.5-0.1,2.2c0,4,0.7,7.9,1.9,11.5L1395.5,314z"/>
</g>
</svg>
