<?xml version="1.0" encoding="utf-8"?>
<!-- Generator: Adobe Illustrator 26.0.3, SVG Export Plug-In . SVG Version: 6.00 Build 0)  -->
<svg version="1.1" id="Layer_1" xmlns="http://www.w3.org/2000/svg" xmlns:xlink="http://www.w3.org/1999/xlink" x="0px" y="0px"
	 viewBox="0 0 1920 1080" style="enable-background:new 0 0 1920 1080;" xml:space="preserve">
<style type="text/css">
	.st0{fill:url(#SVGID_1_);}
	.st1{fill:#353535;}
</style>
<linearGradient id="SVGID_1_" gradientUnits="userSpaceOnUse" x1="462.907" y1="676.7091" x2="650.4548" y2="351.8667">
	<stop  offset="0" style="stop-color:#D6A052"/>
	<stop  offset="0.3046" style="stop-color:#D39D47"/>
	<stop  offset="0.4963" style="stop-color:#C98A3E"/>
	<stop  offset="0.7099" style="stop-color:#F7D571"/>
	<stop  offset="1" style="stop-color:#D5A74C"/>
</linearGradient>
<path class="st0" d="M744.2,561.8c0.1,2.5,0.1,3.8,0.1,5.2c0,16.9-0.1,33.8,0.1,50.7c0,3.7-1.3,5.6-4.4,7.4
	c-59.9,34.5-119.7,69-179.4,103.8c-3.8,2.2-6.1,0.7-9-1c-52.1-30.1-104.1-60.1-156.2-90.2c-7.5-4.3-14.9-8.7-22.4-12.9
	c-2.8-1.5-4-3.4-4-6.6c0.1-69.1,0.1-138.3,0-207.4c0-3.2,1-5.1,3.9-6.7c59.7-34.4,119.4-68.8,179-103.4c3.6-2.1,6.3-2.1,9.9,0.1
	c14.5,8.7,29.2,17,43.8,25.5c1.1,0.6,2.2,1.4,3.8,2.4c-12.5,7.2-24.5,14.1-36.5,21.1c-48.3,27.9-96.7,55.9-145.1,83.7
	c-4.2,2.4-5.9,5.1-5.9,10.1c0.2,47.4,0.2,94.9,0,142.3c0,4.5,1.2,7.1,5.3,9.5C468.9,619,510.4,643,552,667.2c3.4,2,6,2.1,9.4,0.1
	C620.3,633.1,679.3,599,738.2,565C739.9,564,741.9,563,744.2,561.8z"/>
<path class="st1" d="M708.6,459.7c0,19.2,0.1,37.8-0.2,56.2c0,1.7-2.2,3.8-3.9,4.8c-39.1,22.7-78.2,45.2-117.3,67.8
	c-7.9,4.5-15.8,9-23.6,13.7c-3.2,1.9-6,2.1-9.3,0.2c-12-7-24.1-13.9-36.1-20.9c-5.7-3.4-5.8-8-0.1-11.4
	c62.5-36.4,125-72.7,187.5-109C706.5,460.7,707,460.4,708.6,459.7z"/>
<path class="st1" d="M680.2,410.4c-6.8,4-12.7,7.4-18.7,10.9C605,454.2,548.5,487,491.9,519.9c-1,0.6-2,1.2-3,1.7
	c-4.5,2.2-8.7,0-8.7-5c-0.2-14.6-0.3-29.2,0.2-43.8c0.1-2.3,3.2-5.3,5.6-6.7c39.5-23,79.1-45.8,118.7-68.6
	c7.9-4.6,15.7-9.2,23.7-13.6c1.4-0.8,4-1.1,5.3-0.3C648.9,392.2,664.1,401.1,680.2,410.4z"/>
<path class="st1" d="M716.9,513.6c0-19.8,0-38.3,0.1-56.9c0-1.2,1.3-2.9,2.5-3.7c5.3-3.3,10.8-6.5,16.3-9.6c5.4-3,9.6-0.5,9.6,5.8
	c0.1,14.4,0.1,28.9-0.1,43.3c0,2-1.2,4.9-2.7,5.9C734.6,503.6,726.2,508.2,716.9,513.6z"/>
<path class="st1" d="M640.1,377.1c8.2-4.7,16.7-9.8,25-14.2c1.8-1,5.1-0.9,6.9,0.1c12,6.6,23.9,13.5,35.7,20.5
	c5.2,3,5.2,7.7,0.1,10.8c-5.5,3.4-11.1,6.6-16.7,9.7c-1.1,0.6-3,0.9-4,0.3c-15.4-8.8-30.1-17.3-45.4-26.2
	C641.4,378,640.8,377.6,640.1,377.1z"/>
</svg>
