<svg id="Layer_1" data-name="Layer 1" xmlns="http://www.w3.org/2000/svg" xmlns:xlink="http://www.w3.org/1999/xlink" viewBox="0 0 1162.33 463.79"><defs><style>.cls-1{fill:url(#linear-gradient);}.cls-2{fill:#f1f2f0;}.cls-3{fill:url(#linear-gradient-2);}.cls-4,.cls-5{opacity:0.82;}.cls-4{fill:url(#linear-gradient-3);}.cls-5{fill:url(#linear-gradient-4);}.cls-6{fill:url(#linear-gradient-5);}.cls-7{fill:url(#linear-gradient-6);}.cls-8{fill:url(#linear-gradient-7);}.cls-9{fill:url(#linear-gradient-8);}</style><linearGradient id="linear-gradient" x1="939.35" y1="604.51" x2="1290.7" y2="253.15" gradientUnits="userSpaceOnUse"><stop offset="0" stop-color="#d6a052"/><stop offset="0.3" stop-color="#d39d47"/><stop offset="0.5" stop-color="#c98a3e"/><stop offset="0.71" stop-color="#f7d571"/><stop offset="1" stop-color="#d5a74c"/></linearGradient><linearGradient id="linear-gradient-2" x1="462.91" y1="676.71" x2="650.45" y2="351.87" xlink:href="#linear-gradient"/><linearGradient id="linear-gradient-3" x1="1502.32" y1="334.43" x2="1502.53" y2="334.43" gradientUnits="userSpaceOnUse"><stop offset="0" stop-color="#ba7e3c"/><stop offset="1" stop-color="#c2813c"/></linearGradient><linearGradient id="linear-gradient-4" x1="1501.5" y1="334.88" x2="1501.67" y2="334.88" xlink:href="#linear-gradient-3"/><linearGradient id="linear-gradient-5" x1="1393.33" y1="301.96" x2="1530" y2="301.96" gradientUnits="userSpaceOnUse"><stop offset="0" stop-color="#e6e6e6"/><stop offset="0.31" stop-color="#e4e4e4"/><stop offset="0.61" stop-color="#e0dfe0"/><stop offset="1" stop-color="#eceaec"/></linearGradient><linearGradient id="linear-gradient-6" x1="1485.07" y1="302.66" x2="1531.33" y2="302.66" xlink:href="#linear-gradient-3"/><linearGradient id="linear-gradient-7" x1="1394.66" y1="301.93" x2="1531.33" y2="301.93" xlink:href="#linear-gradient"/><linearGradient id="linear-gradient-8" x1="1393.33" y1="302.66" x2="1439.51" y2="302.66" gradientUnits="userSpaceOnUse"><stop offset="0" stop-color="#cacaca"/><stop offset="1" stop-color="#cdcdcd"/></linearGradient></defs><path class="cls-1" d="M965.94,364h-82v52.27H953.6V442H883.91v51.18h80.58V520H854.87V337.81H965.94Zm166.25,34.84c0,32.67-25.41,59.17-59.17,60.62l-8-25c24.69-1.82,37.75-14.52,37.75-35.58,0-22.86-15.24-34.84-39.92-34.84h-27.23V520h-29V337.81h55.18C1105,337.81,1132.19,360.68,1132.19,398.79ZM1196.79,520h-29V337.81h29Zm135.38-184.39a116.75,116.75,0,0,1,54.08,13.06l-6.17,27.95a108.59,108.59,0,0,0-49.36-12.34c-41.38,0-65.34,26.14-65.34,64.25,0,38.47,24,64.61,65.34,64.61a108.59,108.59,0,0,0,49.36-12.34l6.17,27.95a116.75,116.75,0,0,1-54.08,13.06c-53.72,0-95.46-34.84-95.46-93.28C1236.71,370.48,1278.08,335.64,1332.17,335.64Z" transform="translate(-369 -266.15)"/><path class="cls-2" d="M918,565.77c12.05,0,25.74,2,38.34,9l-3.1,13.69A78.11,78.11,0,0,0,918,579.65c-27.57,0-48,20.81-48,49.66,0,28.66,20.44,49.48,48,49.48A78.13,78.13,0,0,0,953.28,670l3.1,13.69c-12.6,6.94-26.29,8.95-38.34,8.95-34.32,0-63.17-23.55-63.17-63.35C854.87,589.33,883.72,565.77,918,565.77Z" transform="translate(-369 -266.15)"/><path class="cls-2" d="M1082.14,659.43h-54l-13.51,32.13H998.16l55.68-126h3.29l55.68,126H1096Zm-5.66-13.51-21.72-50.38-21,50.38Z" transform="translate(-369 -266.15)"/><path class="cls-2" d="M1195.49,566.14c5.66,0,17.16.73,28.3,6.39l-2.74,13.15a62,62,0,0,0-25-5.66c-13.87,0-20.81,6.2-20.81,15.7,0,24.82,51.3,26.11,51.3,63.34,0,17.9-12,33.23-39.25,33.23a63.61,63.61,0,0,1-30.86-7.66l2.74-13.7c11,5.3,17.71,7.67,27.93,7.67,17.17,0,24.83-6.75,24.83-17.71,0-27.75-52.21-29.21-52.21-64.81C1159.71,578.37,1172.67,566.14,1195.49,566.14Z" transform="translate(-369 -266.15)"/><path class="cls-2" d="M1386.25,566.87V691.56h-14.6V635.33h-70.11v56.23h-14.6V566.87h14.6v54.59h70.11V566.87Z" transform="translate(-369 -266.15)"/><path class="cls-3" d="M744.16,561.78c.07,2.47.08,3.76.08,5.18,0,16.92-.1,33.83.1,50.75,0,3.66-1.25,5.58-4.36,7.37q-89.79,51.72-179.4,103.75c-3.8,2.21-6.14.7-9-1L395.36,637.66c-7.46-4.31-14.86-8.73-22.4-12.89-2.79-1.53-4-3.35-4-6.64q.13-103.73,0-207.45a6.72,6.72,0,0,1,3.85-6.68q89.58-51.58,179-103.43c3.65-2.11,6.31-2.06,9.91.09,14.5,8.66,29.2,17,43.83,25.45,1.11.64,2.18,1.37,3.77,2.38l-36.49,21.09q-72.51,41.88-145.08,83.68c-4.23,2.43-5.93,5.06-5.91,10.11q.33,71.13,0,142.27c0,4.49,1.21,7.15,5.25,9.47q62.54,35.8,124.81,72.06c3.39,2,5.95,2.08,9.45.06Q649.77,616,738.25,565C739.91,564,741.86,563,744.16,561.78Z" transform="translate(-369 -266.15)"/><path class="cls-2" d="M708.64,459.66c0,19.21.09,37.81-.19,56.19,0,1.65-2.19,3.83-3.91,4.83q-58.57,34-117.29,67.8c-7.88,4.55-15.8,9-23.61,13.7-3.16,1.89-6,2.12-9.26.2-12-7-24.08-13.87-36.07-20.9-5.73-3.36-5.83-8-.12-11.36q93.72-54.57,187.51-109C706.46,460.69,707,460.41,708.64,459.66Z" transform="translate(-369 -266.15)"/><path class="cls-2" d="M680.21,410.38l-18.69,10.91L491.94,519.87c-1,.58-2,1.23-3,1.73-4.55,2.17-8.68,0-8.74-5-.17-14.59-.31-29.19.21-43.76.08-2.32,3.15-5.26,5.57-6.67q59.24-34.49,118.66-68.61c7.89-4.55,15.71-9.21,23.71-13.56,1.43-.79,4-1.08,5.29-.33C648.91,392.24,664.07,401.07,680.21,410.38Z" transform="translate(-369 -266.15)"/><path class="cls-2" d="M717,513.61c0-19.77-.05-38.31.11-56.86,0-1.25,1.33-2.92,2.5-3.65,5.33-3.34,10.77-6.51,16.27-9.56s9.56-.49,9.61,5.78c.12,14.43.15,28.85-.08,43.27,0,2-1.17,4.91-2.74,5.91C734.56,503.62,726.19,508.25,717,513.61Z" transform="translate(-369 -266.15)"/><path class="cls-2" d="M640.06,377.07c8.17-4.71,16.67-9.82,25-14.2a8.44,8.44,0,0,1,6.87.11c12,6.61,23.88,13.53,35.69,20.51,5.16,3.05,5.18,7.73.13,10.85-5.49,3.39-11.08,6.61-16.73,9.71a4.84,4.84,0,0,1-4,.33c-15.37-8.75-30.09-17.33-45.38-26.23A17.15,17.15,0,0,1,640.06,377.07Z" transform="translate(-369 -266.15)"/><path class="cls-4" d="M1502.32,334.48l.21-.11Z" transform="translate(-369 -266.15)"/><path class="cls-5" d="M1501.67,334.83c-.06,0-.12.06-.17.1h0Z" transform="translate(-369 -266.15)"/><path class="cls-6" d="M1428.91,266.19c15.09-.36,25.49,8.3,33.39,21.08l0,0c1.13,1.82,10,16.13,12.87,20.18,1.52,2.18,3.07,4.2,4.39,5.83a28.47,28.47,0,0,0,2.56,2.95c.17.18.33.34.46.46l0,0c.56.54,1.15,1.06,1.76,1.56l.33.3c5.33,5.4,12.26,9.23,20.36,9.23a27.29,27.29,0,0,0,24.92-16.3c-4.16,15-18,25.81-34.34,26.26-15.7.43-26.1-8.23-33.39-21.08h0c-1.15-1.83-9.81-15.61-12.64-19.65-1.52-2.17-3.06-4.2-4.38-5.82a29.66,29.66,0,0,0-2.56-3l-.46-.46h0a32.28,32.28,0,0,0-3.41-2.84,27,27,0,0,0-18.61-7.4,27.35,27.35,0,0,0-26.85,22.62C1394.26,281.26,1409.84,266.66,1428.91,266.19Z" transform="translate(-369 -266.15)"/><path class="cls-7" d="M1531.33,302c0-.72,0-1.44-.07-2.15a27.34,27.34,0,0,0-26.78-22.28,27,27,0,0,0-17.76,6.63,20.16,20.16,0,0,1,7.71-1.53h.84a19.31,19.31,0,1,1,0,38.6h-.84a20,20,0,0,1-9.36-2.3c5.29,5.22,12.08,8.88,20,8.88A27.29,27.29,0,0,0,1530,311.5c-.2.7-.41,1.38-.64,2.06A34.85,34.85,0,0,0,1531.33,302Z" transform="translate(-369 -266.15)"/><path class="cls-8" d="M1495.74,266.16c-15.09-.37-25.48,8.3-33.38,21.08l0,0c-1.13,1.82-10,16.13-12.87,20.18-1.53,2.17-3.07,4.2-4.39,5.83a28.47,28.47,0,0,1-2.56,2.95c-.17.18-.33.34-.46.46l0,0c-.56.54-1.15,1.06-1.76,1.56l-.33.3c-5.34,5.4-12.26,9.23-20.36,9.23a27.29,27.29,0,0,1-24.92-16.3c4.16,15,18,25.81,34.34,26.26,15.7.43,26.1-8.23,33.39-21.08h0c1.15-1.83,9.8-15.61,12.63-19.65,1.52-2.17,3.07-4.2,4.39-5.82a29.66,29.66,0,0,1,2.56-3l.46-.46h0a31.19,31.19,0,0,1,3.4-2.84,27.08,27.08,0,0,1,18.62-7.4,27.36,27.36,0,0,1,26.85,22.62C1530.4,281.23,1514.82,266.63,1495.74,266.16Z" transform="translate(-369 -266.15)"/><path class="cls-9" d="M1395.47,314c-.3-.83-.57-1.68-.81-2.54a27.29,27.29,0,0,0,24.92,16.3c7.89,0,14.65-3.63,19.93-8.8a20.12,20.12,0,0,1-9.27,2.25h-.84a19.31,19.31,0,1,1,0-38.6h.84a20.09,20.09,0,0,1,7.62,1.49,27,27,0,0,0-17.68-6.56,27.35,27.35,0,0,0-26.78,22.25c0,.73-.07,1.47-.07,2.21a35.3,35.3,0,0,0,1.9,11.48Z" transform="translate(-369 -266.15)"/></svg>