<?xml version="1.0" encoding="utf-8"?>
<!-- Generator: Adobe Illustrator 16.0.0, SVG Export Plug-In . SVG Version: 6.00 Build 0)  -->
<!DOCTYPE svg PUBLIC "-//W3C//DTD SVG 1.1//EN" "http://www.w3.org/Graphics/SVG/1.1/DTD/svg11.dtd">
<svg version="1.1" id="Layer_1" xmlns="http://www.w3.org/2000/svg" xmlns:xlink="http://www.w3.org/1999/xlink" x="0px" y="0px"
	 width="432px" height="432px" viewBox="744.5 324.619 432 432" enable-background="new 744.5 324.619 432 432"
	 xml:space="preserve">
<g>
	<g>
		<g>
			<g>
				<g opacity="0.82">
					<defs>
						<rect id="SVGID_1_" x="1008.788" y="587.813" opacity="0.82" width="0.631" height="0.329"/>
					</defs>
					<clipPath id="SVGID_2_">
						<use xlink:href="#SVGID_1_"  overflow="visible"/>
					</clipPath>
					<g clip-path="url(#SVGID_2_)">
						<g>
							<defs>
								<path id="SVGID_3_" d="M1008.784,588.142c0.212-0.111,0.425-0.22,0.637-0.329
									C1009.209,587.923,1008.996,588.03,1008.784,588.142"/>
							</defs>
							<clipPath id="SVGID_4_">
								<use xlink:href="#SVGID_3_"  overflow="visible"/>
							</clipPath>
							
								<linearGradient id="SVGID_5_" gradientUnits="userSpaceOnUse" x1="-162.186" y1="-377.7234" x2="-161.186" y2="-377.7234" gradientTransform="matrix(0.6371 0 0 0.6371 1112.1124 828.6251)">
								<stop  offset="0" style="stop-color:#BA7E3C"/>
								<stop  offset="1" style="stop-color:#C2813C"/>
							</linearGradient>
							<rect x="1008.784" y="587.813" clip-path="url(#SVGID_4_)" fill="url(#SVGID_5_)" width="0.637" height="0.329"/>
						</g>
					</g>
				</g>
				<g>
					<g>
						<g opacity="0.82">
							<defs>
								<rect id="SVGID_6_" x="1006.288" y="589.212" opacity="0.82" width="0.521" height="0.295"/>
							</defs>
							<clipPath id="SVGID_7_">
								<use xlink:href="#SVGID_6_"  overflow="visible"/>
							</clipPath>
							<g clip-path="url(#SVGID_7_)">
								<g>
									<defs>
										<path id="SVGID_8_" d="M1006.813,589.212c-0.174,0.096-0.351,0.185-0.521,0.28v0.015
											C1006.464,589.408,1006.637,589.308,1006.813,589.212"/>
									</defs>
									<clipPath id="SVGID_9_">
										<use xlink:href="#SVGID_8_"  overflow="visible"/>
									</clipPath>
									
										<linearGradient id="SVGID_10_" gradientUnits="userSpaceOnUse" x1="-396.0713" y1="-389.0554" x2="-395.0723" y2="-389.0554" gradientTransform="matrix(0.5211 0 0 0.5211 1212.6843 792.0958)">
										<stop  offset="0" style="stop-color:#BA7E3C"/>
										<stop  offset="1" style="stop-color:#C2813C"/>
									</linearGradient>
									<rect x="1006.29" y="589.212" clip-path="url(#SVGID_9_)" fill="url(#SVGID_10_)" width="0.521" height="0.295"/>
								</g>
							</g>
						</g>
					</g>
					<g>
						<g>
							<defs>
								<path id="SVGID_11_" d="M861.155,434.003c-56.542,1.377-102.73,44.677-105.485,100.642
									c6.782-38.122,39.829-67.061,79.603-67.061c21.334,0,40.727,8.337,55.181,21.938c3.589,2.604,6.968,5.408,10.085,8.409
									c0.03,0.018,0.063,0.026,0.094,0.054c0.395,0.362,0.86,0.829,1.371,1.356c2.752,2.771,5.277,5.702,7.59,8.756
									c3.912,4.821,8.488,10.828,13,17.272c8.39,11.983,34.054,52.833,37.444,58.239l0.019-0.03
									c21.606,38.102,52.427,63.782,98.975,62.498c48.571-1.34,89.48-33.367,101.801-77.841
									c-12.623,28.462-40.938,48.306-73.871,48.306c-24.02,0-44.54-11.331-60.365-27.345c-0.312-0.314-0.64-0.614-0.979-0.896
									c-1.802-1.489-3.541-3.032-5.205-4.633c-0.03-0.019-0.063-0.027-0.093-0.054c-0.396-0.364-0.862-0.83-1.371-1.356
									c-2.752-2.771-5.277-5.702-7.592-8.756c-3.911-4.821-8.487-10.828-12.999-17.272c-8.411-12.019-34.814-54.429-38.168-59.823
									c-0.02,0.031-0.037,0.062-0.057,0.094c-22.936-37.131-52.973-62.532-96.246-62.531
									C862.982,433.969,862.07,433.979,861.155,434.003"/>
							</defs>
							<clipPath id="SVGID_12_">
								<use xlink:href="#SVGID_11_"  overflow="visible"/>
							</clipPath>
							
								<linearGradient id="SVGID_13_" gradientUnits="userSpaceOnUse" x1="886.8477" y1="-327.5784" x2="887.8477" y2="-327.5784" gradientTransform="matrix(405.1609 0 0 405.1609 -358560.4375 133262.2813)">
								<stop  offset="0" style="stop-color:#E6E6E6"/>
								<stop  offset="0.309" style="stop-color:#E4E4E4"/>
								<stop  offset="0.6086" style="stop-color:#E0DFE0"/>
								<stop  offset="1" style="stop-color:#ECEAEC"/>
							</linearGradient>
							<rect x="755.67" y="433.969" clip-path="url(#SVGID_12_)" fill="url(#SVGID_13_)" width="405.16" height="213.393"/>
						</g>
					</g>
					<g>
						<g>
							<defs>
								<path id="SVGID_14_" d="M1032.544,487.226c7.022-2.902,14.741-4.511,22.85-4.511c0.417,0,0.831,0.007,1.245,0.015
									c0.415-0.008,0.829-0.015,1.247-0.015c32.39,0,58.647,25.611,58.647,57.205s-26.259,57.206-58.647,57.206
									c-0.418,0-0.832-0.007-1.247-0.016c-0.414,0.009-0.828,0.016-1.245,0.016c-10.042,0-19.493-2.464-27.757-6.804
									c15.682,15.461,35.825,26.31,59.322,26.31c32.933,0,61.248-19.844,73.871-48.308c-0.568,2.058-1.2,4.089-1.891,6.091
									c3.78-10.682,5.844-22.229,5.844-34.413c0-2.138-0.069-4.255-0.194-6.357c-7.181-37.626-39.989-66.061-79.414-66.061
									C1065.07,467.584,1046.692,474.991,1032.544,487.226"/>
							</defs>
							<clipPath id="SVGID_15_">
								<use xlink:href="#SVGID_14_"  overflow="visible"/>
							</clipPath>
							
								<linearGradient id="SVGID_16_" gradientUnits="userSpaceOnUse" x1="883.6191" y1="-327.7336" x2="884.6191" y2="-327.7336" gradientTransform="matrix(137.1462 0 0 137.1462 -120157.3906 45489.5234)">
								<stop  offset="0" style="stop-color:#BA7E3C"/>
								<stop  offset="1" style="stop-color:#C2813C"/>
							</linearGradient>
							<rect x="1027.636" y="467.584" clip-path="url(#SVGID_15_)" fill="url(#SVGID_16_)" width="137.147" height="149.048"/>
						</g>
					</g>
					<g>
						<g>
							<defs>
								<path id="SVGID_17_" d="M960.316,496.41c-0.019-0.03-0.038-0.062-0.056-0.093c-3.355,5.395-29.759,47.808-38.169,59.823
									c-4.512,6.443-9.088,12.451-13,17.271c-2.313,3.055-4.838,5.984-7.592,8.756c-0.51,0.527-0.979,0.994-1.369,1.356
									c-0.03,0.027-0.063,0.036-0.096,0.056c-1.662,1.6-3.402,3.143-5.203,4.632c-0.341,0.282-0.668,0.581-0.979,0.896
									c-15.824,16.013-36.345,27.347-60.365,27.347c-32.933,0-61.248-19.846-73.872-48.308
									c12.32,44.472,53.23,76.501,101.801,77.841c46.548,1.284,77.368-24.397,98.975-62.498c0.006,0.013,0.013,0.021,0.019,0.03
									c3.393-5.406,29.058-46.256,37.444-58.239c4.511-6.443,9.088-12.452,12.998-17.272c2.313-3.055,4.841-5.985,7.593-8.755
									c0.511-0.528,0.978-0.994,1.37-1.357c0.029-0.027,0.063-0.036,0.096-0.054c3.115-3.001,6.492-5.805,10.083-8.409
									c14.454-13.602,33.849-21.938,55.181-21.938c39.774,0,72.819,28.94,79.604,67.062
									c-2.756-55.965-48.942-99.265-105.486-100.643c-0.915-0.022-1.827-0.033-2.729-0.033
									C1013.289,433.878,983.25,459.279,960.316,496.41"/>
							</defs>
							<clipPath id="SVGID_18_">
								<use xlink:href="#SVGID_17_"  overflow="visible"/>
							</clipPath>
							
								<linearGradient id="SVGID_19_" gradientUnits="userSpaceOnUse" x1="886.8477" y1="-327.5784" x2="887.8477" y2="-327.5784" gradientTransform="matrix(405.1609 0 0 405.1609 -358556.4375 133262.2813)">
								<stop  offset="0" style="stop-color:#D6A052"/>
								<stop  offset="0.3046" style="stop-color:#D39D47"/>
								<stop  offset="0.4963" style="stop-color:#C98A3E"/>
								<stop  offset="0.7099" style="stop-color:#F7D571"/>
								<stop  offset="1" style="stop-color:#D5A74C"/>
							</linearGradient>
							<rect x="759.616" y="433.878" clip-path="url(#SVGID_18_)" fill="url(#SVGID_19_)" width="405.161" height="213.393"/>
						</g>
					</g>
					<g>
						<g>
							<defs>
								<path id="SVGID_20_" d="M755.878,533.637c-0.132,2.168-0.208,4.354-0.208,6.559c0,11.959,1.979,23.386,5.62,34.015
									l0.728,1.549c-0.89-2.465-1.694-4.974-2.401-7.522c12.624,28.462,40.939,48.307,73.872,48.307
									c23.382,0,43.444-10.74,59.093-26.08c-8.199,4.252-17.555,6.664-27.488,6.664c-0.418,0-0.832-0.007-1.246-0.016
									c-0.415,0.009-0.828,0.016-1.244,0.016c-32.392,0-58.649-25.611-58.649-57.206c0-31.594,26.258-57.205,58.649-57.205
									c0.416,0,0.829,0.007,1.244,0.015c0.414-0.008,0.828-0.015,1.246-0.015c8.004,0,15.63,1.566,22.58,4.397
									c-14.116-12.115-32.403-19.439-52.399-19.439C795.882,467.673,763.095,496.06,755.878,533.637"/>
							</defs>
							<clipPath id="SVGID_21_">
								<use xlink:href="#SVGID_20_"  overflow="visible"/>
							</clipPath>
							
								<linearGradient id="SVGID_22_" gradientUnits="userSpaceOnUse" x1="883.6118" y1="-327.7336" x2="884.6118" y2="-327.7336" gradientTransform="matrix(136.9104 0 0 136.9104 -120219.8906 45412.2109)">
								<stop  offset="0" style="stop-color:#CACACA"/>
								<stop  offset="1" style="stop-color:#CDCDCD"/>
							</linearGradient>
							<rect x="755.67" y="467.673" clip-path="url(#SVGID_21_)" fill="url(#SVGID_22_)" width="136.911" height="148.868"/>
						</g>
					</g>
				</g>
			</g>
		</g>
	</g>
</g>
</svg>
