<?xml version="1.0" encoding="utf-8"?>
<!-- Generator: Adobe Illustrator 16.0.0, SVG Export Plug-In . SVG Version: 6.00 Build 0)  -->
<!DOCTYPE svg PUBLIC "-//W3C//DTD SVG 1.1//EN" "http://www.w3.org/Graphics/SVG/1.1/DTD/svg11.dtd">
<svg version="1.1" id="Layer_1" xmlns="http://www.w3.org/2000/svg" xmlns:xlink="http://www.w3.org/1999/xlink" x="0px" y="0px"
	 width="1920px" height="1080px" viewBox="0 0 1920 1080" enable-background="new 0 0 1920 1080" xml:space="preserve">
<rect x="0.454" fill="#0D0D0D" width="1919.545" height="1080"/>
<g>
	<g>
		<g opacity="0.82">
			<g>
				<defs>
					<rect id="SVGID_1_" x="1008.788" y="587.813" width="0.631" height="0.329"/>
				</defs>
				<clipPath id="SVGID_2_">
					<use xlink:href="#SVGID_1_"  overflow="visible"/>
				</clipPath>
				<g clip-path="url(#SVGID_2_)">
					<defs>
						<path id="SVGID_3_" d="M1008.784,588.142c0.212-0.111,0.425-0.22,0.637-0.329
							C1009.209,587.922,1008.996,588.03,1008.784,588.142"/>
					</defs>
					<clipPath id="SVGID_4_">
						<use xlink:href="#SVGID_3_"  overflow="visible"/>
					</clipPath>
					
						<linearGradient id="SVGID_5_" gradientUnits="userSpaceOnUse" x1="-23.375" y1="904.0977" x2="-22.376" y2="904.0977" gradientTransform="matrix(0.6371 0 0 -0.6371 1023.6758 1163.943)">
						<stop  offset="0" style="stop-color:#BA7E3C"/>
						<stop  offset="1" style="stop-color:#C2813C"/>
					</linearGradient>
					<rect x="1008.784" y="587.813" clip-path="url(#SVGID_4_)" fill="url(#SVGID_5_)" width="0.637" height="0.329"/>
				</g>
			</g>
		</g>
		<g opacity="0.82">
			<g>
				<defs>
					<rect id="SVGID_6_" x="1006.288" y="589.211" width="0.521" height="0.295"/>
				</defs>
				<clipPath id="SVGID_7_">
					<use xlink:href="#SVGID_6_"  overflow="visible"/>
				</clipPath>
				<g clip-path="url(#SVGID_7_)">
					<defs>
						<path id="SVGID_8_" d="M1006.812,589.211c-0.173,0.096-0.35,0.185-0.521,0.281v0.014
							C1006.464,589.408,1006.637,589.308,1006.812,589.211"/>
					</defs>
					<clipPath id="SVGID_9_">
						<use xlink:href="#SVGID_8_"  overflow="visible"/>
					</clipPath>
					
						<linearGradient id="SVGID_10_" gradientUnits="userSpaceOnUse" x1="-28.5752" y1="864.9688" x2="-27.5742" y2="864.9688" gradientTransform="matrix(0.5211 0 0 -0.5211 1021.1814 1040.1239)">
						<stop  offset="0" style="stop-color:#BA7E3C"/>
						<stop  offset="1" style="stop-color:#C2813C"/>
					</linearGradient>
					<rect x="1006.29" y="589.211" clip-path="url(#SVGID_9_)" fill="url(#SVGID_10_)" width="0.521" height="0.295"/>
				</g>
			</g>
		</g>
	</g>
	<g>
		<defs>
			<path id="SVGID_11_" d="M861.155,434.002c-56.542,1.377-102.73,44.677-105.485,100.642c6.782-38.122,39.829-67.061,79.602-67.061
				c21.334,0,40.727,8.337,55.181,21.938c3.589,2.604,6.968,5.408,10.085,8.409c0.03,0.018,0.063,0.027,0.094,0.054
				c0.394,0.362,0.86,0.829,1.371,1.356c2.752,2.771,5.277,5.702,7.59,8.756c3.912,4.821,8.488,10.828,13,17.273
				c8.389,11.983,34.053,52.833,37.444,58.239l0.019-0.03c21.606,38.101,52.426,63.782,98.974,62.498
				c48.572-1.34,89.481-33.367,101.801-77.841c-12.623,28.462-40.938,48.306-73.871,48.306c-24.02,0-44.54-11.332-60.365-27.345
				c-0.312-0.315-0.64-0.614-0.979-0.896c-1.802-1.489-3.541-3.032-5.205-4.633c-0.03-0.018-0.063-0.027-0.093-0.053
				c-0.395-0.365-0.862-0.83-1.371-1.357c-2.752-2.771-5.277-5.702-7.592-8.756c-3.911-4.821-8.487-10.828-12.999-17.272
				c-8.411-12.019-34.814-54.429-38.168-59.823c-0.019,0.031-0.037,0.061-0.056,0.093c-22.936-37.13-52.973-62.532-96.246-62.531
				C862.982,433.969,862.07,433.979,861.155,434.002"/>
		</defs>
		<clipPath id="SVGID_12_">
			<use xlink:href="#SVGID_11_"  overflow="visible"/>
		</clipPath>
		
			<linearGradient id="SVGID_13_" gradientUnits="userSpaceOnUse" x1="-0.0366" y1="1079.7227" x2="0.9634" y2="1079.7227" gradientTransform="matrix(405.1609 0 0 -405.1609 770.5 438001.7188)">
			<stop  offset="0" style="stop-color:#E6E6E6"/>
			<stop  offset="0.309" style="stop-color:#E4E4E4"/>
			<stop  offset="0.6086" style="stop-color:#E0DFE0"/>
			<stop  offset="1" style="stop-color:#ECEAEC"/>
		</linearGradient>
		<rect x="755.67" y="433.968" clip-path="url(#SVGID_12_)" fill="url(#SVGID_13_)" width="405.16" height="213.393"/>
	</g>
	<g>
		<defs>
			<path id="SVGID_14_" d="M1032.544,487.226c7.022-2.902,14.741-4.511,22.85-4.511c0.417,0,0.831,0.007,1.245,0.015
				c0.415-0.008,0.829-0.015,1.247-0.015c32.39,0,58.647,25.612,58.647,57.205c0,31.594-26.258,57.206-58.647,57.206
				c-0.418,0-0.832-0.006-1.247-0.015c-0.414,0.009-0.828,0.015-1.245,0.015c-10.042,0-19.494-2.463-27.757-6.803
				c15.681,15.461,35.825,26.309,59.322,26.309c32.933,0,61.248-19.844,73.871-48.307c-0.568,2.057-1.2,4.088-1.891,6.09
				c3.781-10.681,5.844-22.228,5.844-34.413c0-2.137-0.069-4.254-0.194-6.357c-7.181-37.626-39.989-66.061-79.414-66.061
				C1065.07,467.583,1046.692,474.991,1032.544,487.226"/>
		</defs>
		<clipPath id="SVGID_15_">
			<use xlink:href="#SVGID_14_"  overflow="visible"/>
		</clipPath>
		
			<linearGradient id="SVGID_16_" gradientUnits="userSpaceOnUse" x1="-0.1079" y1="1079.1836" x2="0.8921" y2="1079.1836" gradientTransform="matrix(137.1462 0 0 -137.1462 1042.5 148547.9063)">
			<stop  offset="0" style="stop-color:#BA7E3C"/>
			<stop  offset="1" style="stop-color:#C2813C"/>
		</linearGradient>
		<rect x="1027.636" y="467.583" clip-path="url(#SVGID_15_)" fill="url(#SVGID_16_)" width="137.147" height="149.048"/>
	</g>
	<g>
		<defs>
			<path id="SVGID_17_" d="M960.316,496.41c-0.018-0.031-0.038-0.062-0.055-0.093c-3.356,5.394-29.759,47.807-38.169,59.823
				c-4.512,6.444-9.088,12.451-13,17.272c-2.314,3.054-4.838,5.984-7.592,8.756c-0.51,0.527-0.978,0.994-1.369,1.356
				c-0.03,0.027-0.063,0.036-0.096,0.056c-1.662,1.599-3.402,3.142-5.203,4.631c-0.341,0.283-0.668,0.582-0.979,0.896
				c-15.825,16.013-36.345,27.347-60.366,27.347c-32.932,0-61.248-19.846-73.872-48.308c12.321,44.472,53.231,76.501,101.801,77.841
				c46.548,1.284,77.368-24.398,98.975-62.498c0.006,0.012,0.012,0.021,0.018,0.03c3.393-5.406,29.058-46.256,37.445-58.239
				c4.51-6.444,9.087-12.452,12.998-17.273c2.313-3.054,4.84-5.985,7.592-8.755c0.511-0.528,0.978-0.994,1.371-1.357
				c0.029-0.027,0.063-0.036,0.095-0.054c3.116-3.001,6.493-5.804,10.083-8.409c14.454-13.601,33.849-21.938,55.181-21.938
				c39.774,0,72.819,28.94,79.603,67.061c-2.755-55.965-48.942-99.265-105.486-100.642c-0.915-0.023-1.827-0.034-2.729-0.034
				C1013.289,433.877,983.25,459.279,960.316,496.41"/>
		</defs>
		<clipPath id="SVGID_18_">
			<use xlink:href="#SVGID_17_"  overflow="visible"/>
		</clipPath>
		
			<linearGradient id="SVGID_19_" gradientUnits="userSpaceOnUse" x1="-0.0371" y1="1079.7227" x2="0.9629" y2="1079.7227" gradientTransform="matrix(405.1609 0 0 -405.1609 774.5 438001.7188)">
			<stop  offset="0" style="stop-color:#D6A052"/>
			<stop  offset="0.3046" style="stop-color:#D39D47"/>
			<stop  offset="0.4963" style="stop-color:#C98A3E"/>
			<stop  offset="0.7099" style="stop-color:#F7D571"/>
			<stop  offset="1" style="stop-color:#D5A74C"/>
		</linearGradient>
		<rect x="759.616" y="433.877" clip-path="url(#SVGID_18_)" fill="url(#SVGID_19_)" width="405.161" height="213.393"/>
	</g>
	<g>
		<defs>
			<path id="SVGID_20_" d="M755.878,533.637c-0.132,2.168-0.208,4.354-0.208,6.559c0,11.959,1.978,23.385,5.62,34.014l0.728,1.549
				c-0.89-2.465-1.695-4.973-2.402-7.522c12.624,28.462,40.94,48.306,73.872,48.306c23.382,0,43.445-10.74,59.093-26.08
				c-8.199,4.252-17.555,6.664-27.488,6.664c-0.418,0-0.832-0.006-1.246-0.015c-0.415,0.009-0.829,0.015-1.245,0.015
				c-32.391,0-58.649-25.611-58.649-57.206c0-31.593,26.258-57.205,58.649-57.205c0.416,0,0.83,0.007,1.245,0.015
				c0.414-0.008,0.828-0.015,1.246-0.015c8.004,0,15.63,1.567,22.58,4.398c-14.116-12.116-32.404-19.44-52.4-19.44
				C795.882,467.672,763.095,496.06,755.878,533.637"/>
		</defs>
		<clipPath id="SVGID_21_">
			<use xlink:href="#SVGID_20_"  overflow="visible"/>
		</clipPath>
		
			<linearGradient id="SVGID_22_" gradientUnits="userSpaceOnUse" x1="-0.1089" y1="1079.1807" x2="0.8911" y2="1079.1807" gradientTransform="matrix(136.9104 0 0 -136.9104 770.5625 148293.1875)">
			<stop  offset="0" style="stop-color:#CACACA"/>
			<stop  offset="1" style="stop-color:#CDCDCD"/>
		</linearGradient>
		<rect x="755.67" y="467.672" clip-path="url(#SVGID_21_)" fill="url(#SVGID_22_)" width="136.911" height="148.869"/>
	</g>
</g>
</svg>
