<svg id="Layer_1" data-name="Layer 1" xmlns="http://www.w3.org/2000/svg" xmlns:xlink="http://www.w3.org/1999/xlink" viewBox="0 0 1920 1080"><defs><style>.cls-1{fill:#0d0d0d;}.cls-2{fill:url(#linear-gradient);}.cls-3{fill:url(#linear-gradient-2);}.cls-4{fill:url(#linear-gradient-3);}.cls-11,.cls-12,.cls-5,.cls-6{opacity:0.82;}.cls-5{fill:url(#linear-gradient-4);}.cls-6{fill:url(#linear-gradient-5);}.cls-7{fill:url(#linear-gradient-6);}.cls-8{fill:url(#linear-gradient-7);}.cls-9{fill:url(#linear-gradient-8);}.cls-10{fill:url(#linear-gradient-9);}.cls-11{fill:url(#linear-gradient-10);}.cls-12{fill:url(#linear-gradient-11);}</style><linearGradient id="linear-gradient" x1="1052.76" y1="650.66" x2="1160" y2="650.66" gradientUnits="userSpaceOnUse"><stop offset="0" stop-color="#fff"/><stop offset="1" stop-color="#fff"/><stop offset="1"/></linearGradient><linearGradient id="linear-gradient-2" x1="792.84" y1="650.67" x2="878.2" y2="650.67" xlink:href="#linear-gradient"/><linearGradient id="linear-gradient-3" x1="903.62" y1="650.61" x2="1019.14" y2="650.61" xlink:href="#linear-gradient"/><linearGradient id="linear-gradient-4" x1="1023.68" y1="475.92" x2="1024.31" y2="475.92" gradientUnits="userSpaceOnUse"><stop offset="0" stop-color="#ba7e3c"/><stop offset="1" stop-color="#c2813c"/></linearGradient><linearGradient id="linear-gradient-5" x1="1021.18" y1="477.3" x2="1021.7" y2="477.3" xlink:href="#linear-gradient-4"/><linearGradient id="linear-gradient-6" x1="770.56" y1="427.98" x2="1175.72" y2="427.98" gradientUnits="userSpaceOnUse"><stop offset="0" stop-color="#e6e6e6"/><stop offset="0.31" stop-color="#e4e4e4"/><stop offset="0.61" stop-color="#e0dfe0"/><stop offset="1" stop-color="#eceaec"/></linearGradient><linearGradient id="linear-gradient-7" x1="1042.53" y1="430.05" x2="1179.67" y2="430.05" xlink:href="#linear-gradient-4"/><linearGradient id="linear-gradient-8" x1="774.51" y1="427.9" x2="1179.67" y2="427.9" gradientUnits="userSpaceOnUse"><stop offset="0" stop-color="#d6a052"/><stop offset="0.3" stop-color="#d39d47"/><stop offset="0.5" stop-color="#c98a3e"/><stop offset="0.71" stop-color="#f7d571"/><stop offset="1" stop-color="#d5a74c"/></linearGradient><linearGradient id="linear-gradient-9" x1="770.56" y1="430.05" x2="907.47" y2="430.05" gradientUnits="userSpaceOnUse"><stop offset="0" stop-color="#cacaca"/><stop offset="1" stop-color="#cdcdcd"/></linearGradient><linearGradient id="linear-gradient-10" x1="770.11" y1="712.55" x2="770.74" y2="712.55" xlink:href="#linear-gradient-4"/><linearGradient id="linear-gradient-11" x1="767.61" y1="713.93" x2="768.13" y2="713.93" xlink:href="#linear-gradient-4"/></defs><rect class="cls-1" width="1920" height="1080"/><path class="cls-2" d="M1125.77,666.82c11.32,17.8,22.54,35.46,34.23,53.86-6.23,0-11.7-.45-17.07.12-5.89.62-9.07-1.62-12.08-6.65-10.71-17.91-22-35.49-33-53.2-.49-.79-.87-1.65-1.44-2.76,2.59-.47,4.93-.8,7.22-1.34,13.54-3.2,21.75-13.71,22-28,.2-13.39-7.22-23.5-21.12-26.27-9.46-1.89-19.34-1.7-29.51-2.47V720.41h-22.15V581.34c.32-.27.4-.41.49-.41,18.71.06,37.53-1.93,56.06,1.48,14.9,2.75,27.31,9.89,34.39,24.19,7.71,15.57,5.61,45.46-15.71,58.58C1127.31,665.6,1126.7,666.13,1125.77,666.82Z" transform="translate(-0.45 0)"/><path class="cls-3" d="M868.93,640.92c0,6.33,0,12,0,17.74,0,2.5-1.71,2.12-3.21,2.13H815.47a29.47,29.47,0,0,0-.36,3c0,11,.07,22-.07,32.93,0,2.74.92,3.42,3.51,3.41,18.26-.1,36.52,0,54.77-.13,3.2,0,4.12.9,4,4-.25,5.33-.07,10.69-.07,16.33H792.84V581H878.2v19.67H815.45c-.15,1.4-.34,2.41-.34,3.43,0,11.1.07,22.19-.07,33.29,0,2.8.81,3.67,3.65,3.64,15.15-.12,30.3-.06,45.46-.06Z" transform="translate(-0.45 0)"/><path class="cls-4" d="M1019.14,589.13c-1.58,7.12-3.1,14-4.6,20.73-6.59-2.22-12.77-4.7-19.16-6.38-13.43-3.53-27-3.84-40.15,1.1-18.4,6.92-27.25,21.19-29,40.2-1,10.36.25,20.54,4.92,30,7.68,15.57,20.95,23,37.64,24.85,14.71,1.67,28.71-1.33,42.13-7.33.76-.34,1.51-.72,2.27-1.06a5.63,5.63,0,0,1,1-.15,13.26,13.26,0,0,1,.83,2.08c1.23,5.47,2.32,11,3.65,16.41.45,1.86.09,2.82-1.67,3.61-25.8,11.53-51.73,12.79-77.36,0-17.38-8.67-28.42-23-33.12-41.88-4.9-19.64-3.86-39,5.94-57,11.87-21.86,31.48-32.21,55.5-34.85A88.36,88.36,0,0,1,1017,588C1017.61,588.27,1018.22,588.63,1019.14,589.13Z" transform="translate(-0.45 0)"/><path class="cls-5" d="M1023.68,476.08l.63-.33Z" transform="translate(-0.45 0)"/><path class="cls-6" d="M1021.7,477.15l-.52.28h0C1021.36,477.35,1021.53,477.25,1021.7,477.15Z" transform="translate(-0.45 0)"/><path class="cls-7" d="M876.05,321.94c44.74-1.09,75.56,24.59,99,62.5l.06-.09c3.35,5.39,29.76,47.8,38.17,59.82,4.51,6.44,9.09,12.45,13,17.27a86.9,86.9,0,0,0,7.59,8.76c.51.52,1,1,1.37,1.35l.09.06c1.67,1.6,3.4,3.14,5.21,4.63a11.75,11.75,0,0,1,1,.9c15.83,16,36.35,27.34,60.37,27.34a80.86,80.86,0,0,0,73.87-48.31c-12.32,44.48-53.23,76.51-101.8,77.85-46.55,1.28-77.37-24.4-99-62.5l0,0c-3.39-5.41-29.06-46.26-37.45-58.24-4.51-6.45-9.08-12.45-13-17.27a85.92,85.92,0,0,0-7.6-8.76c-.51-.53-1-1-1.37-1.36l-.09-.05a95.88,95.88,0,0,0-10.09-8.41,80.24,80.24,0,0,0-55.18-21.94c-39.77,0-72.82,28.94-79.6,67.06C773.32,366.62,819.5,323.32,876.05,321.94Z" transform="translate(-0.45 0)"/><path class="cls-8" d="M1179.67,427.94c0-2.14-.07-4.25-.19-6.36-7.18-37.62-40-66.06-79.41-66.06a80.13,80.13,0,0,0-52.63,19.65,59.54,59.54,0,0,1,22.85-4.52l1.24,0,1.25,0c32.39,0,58.64,25.62,58.64,57.21s-26.25,57.2-58.64,57.2h-2.49a59.52,59.52,0,0,1-27.76-6.8c15.68,15.46,35.82,26.31,59.32,26.31a80.86,80.86,0,0,0,73.87-48.31q-.85,3.09-1.89,6.09A102.75,102.75,0,0,0,1179.67,427.94Z" transform="translate(-0.45 0)"/><path class="cls-9" d="M1074.18,321.85c-44.74-1.09-75.56,24.59-99,62.5l-.06-.09c-3.35,5.39-29.75,47.8-38.17,59.82-4.51,6.44-9.08,12.45-13,17.27a84.59,84.59,0,0,1-7.59,8.76c-.51.52-1,1-1.37,1.35a.47.47,0,0,1-.09.06q-2.49,2.4-5.21,4.63a11.75,11.75,0,0,0-1,.9c-15.83,16-36.35,27.34-60.37,27.34a80.86,80.86,0,0,1-73.87-48.31c12.32,44.48,53.23,76.51,101.8,77.85,46.55,1.28,77.37-24.4,99-62.5l0,0c3.39-5.41,29.06-46.26,37.45-58.24,4.51-6.45,9.08-12.45,13-17.27a84.59,84.59,0,0,1,7.59-8.76c.51-.53,1-1,1.37-1.36l.09-.05a95.88,95.88,0,0,1,10.09-8.41,80.24,80.24,0,0,1,55.18-21.94c39.77,0,72.82,28.94,79.6,67.06C1176.91,366.53,1130.73,323.23,1074.18,321.85Z" transform="translate(-0.45 0)"/><path class="cls-10" d="M776.91,463.7c-.89-2.47-1.7-5-2.4-7.53a80.86,80.86,0,0,0,73.87,48.31c23.38,0,43.45-10.74,59.09-26.08A59.57,59.57,0,0,1,880,485.06h-2.49c-32.39,0-58.65-25.61-58.65-57.2s26.26-57.21,58.65-57.21l1.25,0,1.24,0a59.73,59.73,0,0,1,22.58,4.4,80.18,80.18,0,0,0-52.4-19.44c-39.39,0-72.17,28.39-79.39,66-.13,2.16-.21,4.35-.21,6.56a104.74,104.74,0,0,0,5.62,34Z" transform="translate(-0.45 0)"/><path class="cls-11" d="M770.11,712.72l.63-.33Z" transform="translate(-0.45 0)"/><path class="cls-12" d="M768.13,713.79l-.52.28h0Z" transform="translate(-0.45 0)"/></svg>