<svg id="Layer_1" data-name="Layer 1" xmlns="http://www.w3.org/2000/svg" xmlns:xlink="http://www.w3.org/1999/xlink" viewBox="0 0 582.73 211.66"><defs><style>.cls-1{fill:#1d1d1b;}.cls-2{fill:url(#linear-gradient);}.cls-3{fill:#c4c4c3;}.cls-4{fill:url(#linear-gradient-2);}.cls-5{fill:#b0b0af;}.cls-6{fill:url(#linear-gradient-3);}.cls-7{fill:url(#linear-gradient-4);}.cls-8{fill:url(#linear-gradient-5);}.cls-9{fill:url(#linear-gradient-6);}.cls-10{fill:url(#linear-gradient-7);}.cls-11{fill:url(#linear-gradient-8);}.cls-12{fill:url(#linear-gradient-9);}.cls-13{fill:url(#linear-gradient-10);}</style><linearGradient id="linear-gradient" x1="528.43" y1="90.79" x2="569.27" y2="49.95" gradientUnits="userSpaceOnUse"><stop offset="0" stop-color="#d6a051"/><stop offset="0.26" stop-color="#d29d48"/><stop offset="0.93" stop-color="#f8d572"/></linearGradient><linearGradient id="linear-gradient-2" x1="366.01" y1="676.64" x2="366.01" y2="611.25" gradientTransform="matrix(0.87, -0.5, 0.5, 0.87, -364.82, -111.02)" gradientUnits="userSpaceOnUse"><stop offset="0" stop-color="#9a9999"/><stop offset="0.12" stop-color="#a6a5a5"/><stop offset="0.34" stop-color="#c7c6c6"/><stop offset="0.38" stop-color="#cdcccc"/><stop offset="0.49" stop-color="#d2d1d1"/><stop offset="0.64" stop-color="#e0dfe0"/><stop offset="0.64" stop-color="#e0dfe0"/><stop offset="1" stop-color="#edeaec"/></linearGradient><linearGradient id="linear-gradient-3" x1="169.02" y1="719.97" x2="268.09" y2="620.9" gradientTransform="matrix(0.87, -0.5, 0.5, 0.87, -364.82, -111.02)" gradientUnits="userSpaceOnUse"><stop offset="0" stop-color="#d6a051"/><stop offset="0.26" stop-color="#d29d48"/><stop offset="0.56" stop-color="#ca8b3e"/><stop offset="0.61" stop-color="#d19646"/><stop offset="0.82" stop-color="#edc366"/><stop offset="0.93" stop-color="#f8d572"/></linearGradient><linearGradient id="linear-gradient-4" x1="265.64" y1="789.26" x2="265.64" y2="602.99" xlink:href="#linear-gradient-2"/><linearGradient id="linear-gradient-5" x1="4955.99" y1="337.29" x2="4885.13" y2="217.27" gradientTransform="translate(-1930.4 -4025.29) rotate(60.2)" xlink:href="#linear-gradient-3"/><linearGradient id="linear-gradient-6" x1="4806.88" y1="395.25" x2="4682.34" y2="467.14" gradientTransform="translate(-1726.14 -4012.89) rotate(60.2)" xlink:href="#linear-gradient-2"/><linearGradient id="linear-gradient-7" x1="239.54" y1="611.37" x2="395.39" y2="611.37" xlink:href="#linear-gradient-3"/><linearGradient id="linear-gradient-8" x1="-91.98" y1="2148.58" x2="-16.34" y2="2017.56" gradientTransform="translate(-1577.6 -761.73) rotate(-59.8)" xlink:href="#linear-gradient-2"/><linearGradient id="linear-gradient-9" x1="1002.55" y1="-2979.59" x2="964.64" y2="-3045.25" gradientTransform="matrix(-1, 0, 0, -1, 1214.93, -2630.05)" xlink:href="#linear-gradient-2"/><linearGradient id="linear-gradient-10" x1="557.56" y1="56.17" x2="577.61" y2="36.12" gradientTransform="matrix(1, 0, 0, 1, 0, 0)" xlink:href="#linear-gradient-2"/></defs><path class="cls-1" d="M582.26,332.88c0,28.66-22.87,52-51.08,52H486.47V312.53l19.16,6.54v47.22h25c18,0,32.67-15,32.67-33.41s-14.7-33.42-32.67-33.42H486.47V281.05h44.71C559.39,281.05,582.26,304.22,582.26,332.88Z" transform="translate(-96.74 -227.31)"/><polygon class="cls-1" points="573.95 157.55 551.08 157.55 521.98 119.83 493.01 157.55 470.14 157.55 510.54 105.12 470.89 53.74 493.76 53.74 573.95 157.55"/><polygon class="cls-2" points="547.37 87 524.65 87 550.34 53.74 573.06 53.74 547.37 87"/><polygon class="cls-1" points="379.08 71.56 314.63 71.56 314.63 139.58 379.08 139.58 379.08 157.55 295.47 157.55 295.47 53.74 379.08 53.74 379.08 71.56"/><polygon class="cls-3" points="327.11 114.63 333.19 96.66 367.94 96.66 367.94 114.63 327.11 114.63"/><path class="cls-4" d="M292.92,292l7.2-12.37c3.8-6.53,5.39-14.26,1.41-21.5-2.86-5.19-20.13-30.35-26.06-30.37h-1.94L272.59,261l-18,30.93Z" transform="translate(-96.74 -227.31)"/><path class="cls-5" d="M99.49,329.88l1,1.69,29.22-15.78,110.35.39c30.37-.47,34.66,6.41,27.32,19.05L283.18,308a16.6,16.6,0,0,0-14.29-24.95l-136.79-.47c-7.56,0-15,2.46-19.33,9.52C109.7,297.2,96.55,324.74,99.49,329.88Z" transform="translate(-96.74 -227.31)"/><path class="cls-6" d="M101.19,333l53.3,93.09c3.75,6.56,9.65,11.8,17.9,12,5.93.13,36.36-2.25,39.34-7.37l1-1.68-28.28-17.42-54.77-95.69c-15.6-26.07-11.51-33.32,2.84-33.27-15.44-.06-17.92,5.16-20.55,9.69-6.26,10.76-11.94,20.52-14,24.15C94.92,321.57,98.25,327.83,101.19,333Z" transform="translate(-96.74 -227.31)"/><path class="cls-7" d="M276.21,430.88l1-1.69-28.27-17.41L194.08,316c-15.6-26.07-11.78-33.22,2.84-33.19l-31.48-.11A16.6,16.6,0,0,0,151,307.57l68,118.71c3.75,6.56,9.65,11.8,17.91,12C242.8,438.38,273.23,436,276.21,430.88Z" transform="translate(-96.74 -227.31)"/><path class="cls-8" d="M278,427.86l54-92.7c3.8-6.53,5.39-14.26,1.41-21.5-2.86-5.19-20.12-30.35-26.05-30.37h-1.95l-.94,33.2L249,411.76c-14.77,26.54-23.1,26.62-30.24,14.17,7.68,13.4,13.43,12.94,18.68,12.95l27.93.09C271.29,439,275.06,433,278,427.86Z" transform="translate(-96.74 -227.31)"/><path class="cls-9" d="M319.81,288.63c-2.94-5.14-10-5.4-16-5.42l-138.41-.49A16.6,16.6,0,0,0,151,307.57l13.88,24.23L194.08,316l110.34.39c30.38-.47,34.62,6.7,27.4,19.1,7.77-13.35,4.49-18.1,1.89-22.64Z" transform="translate(-96.74 -227.31)"/><path class="cls-10" d="M272,227.71l-107.27-.4c-7.56,0-15.05,2.47-19.33,9.53-3.07,5.07-16.22,32.61-13.28,37.75l1,1.69,29.22-15.78,110.26.41c30.38-.48,34.61,6.7,27.4,19.1,7.76-13.35,4.49-18.1,1.88-22.64-6.19-10.81-11.81-20.61-13.9-24.24C285,228,277.87,227.73,272,227.71Z" transform="translate(-96.74 -227.31)"/><path class="cls-11" d="M130.49,261.15c-3,5.12.34,11.39,3.28,16.53l68.78,120.11a16.61,16.61,0,0,0,28.76.1l-14.24-41.55-54.83-95.75c-15.6-26.08-11.51-33.33,2.84-33.28-15.44-.05-17.92,5.16-20.55,9.69C138.27,247.77,132.59,257.52,130.49,261.15Z" transform="translate(-96.74 -227.31)"/><path class="cls-12" d="M173,438.68l27.93.08c5.93,0,9.7-6,12.68-11.11l64.8-111.33L240,316.18l-55.51,95.37c-14.78,26.54-23.11,26.62-30.24,14.18C162,439.12,167.71,438.66,173,438.68Z" transform="translate(-96.74 -227.31)"/><polygon class="cls-13" points="560.01 41.24 552.43 51.05 575.16 51.05 582.73 41.24 560.01 41.24"/></svg>